<svg width="30" height="17" viewBox="0 0 30 17" fill="none" xmlns="http://www.w3.org/2000/svg">
<path d="M28.8346 12.876C19.7657 10.4704 10.2373 10.4704 1.16838 12.876C1.16838 12.876 0.426241 11.6579 0.974911 10.5497C1.68229 9.11947 3.79686 10.0033 5.21917 9.67204C6.64148 9.3408 5.86911 7.80522 7.06167 4.86379C8.19529 2.06585 11.8954 4.40892 11.8954 4.40892H18.1076C18.1076 4.40892 21.8077 2.06585 22.9414 4.86379C24.1339 7.80522 23.3615 9.3408 24.7839 9.67204C26.2062 10.0033 28.3207 9.11947 29.0281 10.5497C29.5768 11.6579 28.8346 12.876 28.8346 12.876Z" fill="#EDAA15"/>
<path style="mix-blend-mode:multiply" d="M28.8346 12.876C19.7657 10.4704 10.2373 10.4704 1.16838 12.876C1.16838 12.876 0.426241 11.6579 0.974911 10.5497C1.68229 9.11947 3.79686 10.0033 5.21917 9.67204C6.64148 9.3408 5.86911 7.80522 7.06167 4.86379C8.19529 2.06585 11.8954 4.40892 11.8954 4.40892H18.1076C18.1076 4.40892 21.8077 2.06585 22.9414 4.86379C24.1339 7.80522 23.3615 9.3408 24.7839 9.67204C26.2062 10.0033 28.3207 9.11947 29.0281 10.5497C29.5768 11.6579 28.8346 12.876 28.8346 12.876Z" fill="url(#paint0_linear_2148_12291)"/>
<path style="mix-blend-mode:lighten" d="M28.8346 12.876C19.7657 10.4704 10.2373 10.4704 1.16838 12.876C1.16838 12.876 0.426241 11.6579 0.974911 10.5497C1.68229 9.11947 3.79686 10.0033 5.21917 9.67204C6.64148 9.3408 5.86911 7.80522 7.06167 4.86379C8.19529 2.06585 11.8954 4.40892 11.8954 4.40892H18.1076C18.1076 4.40892 21.8077 2.06585 22.9414 4.86379C24.1339 7.80522 23.3615 9.3408 24.7839 9.67204C26.2062 10.0033 28.3207 9.11947 29.0281 10.5497C29.5768 11.6579 28.8346 12.876 28.8346 12.876Z" fill="url(#paint1_linear_2148_12291)"/>
<path opacity="0.8" d="M28.1923 12.4715C28.9979 9.75751 26.052 10.9893 24.5783 10.7527C21.4722 10.4917 23.821 5.65906 21.1805 4.75236C19.8821 4.33106 18.5686 5.18892 17.6935 6.1063C17.2219 4.56156 12.769 4.56156 12.2975 6.1063C11.4223 5.18892 10.1088 4.33106 8.81046 4.75236C6.16989 5.65906 8.51874 10.4917 5.41264 10.7527C3.93894 10.9893 0.993048 9.75751 1.79867 12.4715C0.935611 9.76362 3.91778 10.8993 5.39903 10.6505C8.41596 10.2933 5.99456 5.47436 8.7364 4.57987C9.99244 4.14484 11.2969 4.87295 12.2022 5.72469C12.7207 4.20437 17.2703 4.20437 17.7887 5.72469C18.6941 4.87295 19.9985 4.14484 21.2545 4.57987C23.9964 5.47436 21.575 10.2933 24.5919 10.6505C26.0732 10.8993 29.0553 9.76362 28.1923 12.4715Z" fill="white"/>
<path d="M29.2352 13.9797C29.3077 14.0224 29.3788 14.0652 29.4438 14.1079C28.1258 14.9841 24.6282 15.6893 20.1209 16.0007C24.4271 15.5 27.2854 14.5322 27.2975 13.679C27.3005 13.505 27.1871 13.2851 26.9317 13.1401C27.6375 13.3157 28.2497 13.5141 28.7485 13.7354C28.7923 13.7553 28.8362 13.7751 28.8785 13.795C29.0054 13.8545 29.1248 13.9171 29.2352 13.9797Z" fill="#D19213"/>
<path style="mix-blend-mode:multiply" d="M29.2352 13.9797C29.3077 14.0224 29.3788 14.0652 29.4438 14.1079C28.1258 14.9841 24.6282 15.6893 20.1209 16.0007C24.4271 15.5 27.2854 14.5322 27.2975 13.679C27.3005 13.505 27.1871 13.2851 26.9317 13.1401C27.6375 13.3157 28.2497 13.5141 28.7485 13.7354C28.7923 13.7553 28.8362 13.7751 28.8785 13.795C29.0054 13.8545 29.1248 13.9171 29.2352 13.9797Z" fill="url(#paint2_linear_2148_12291)"/>
<path style="mix-blend-mode:multiply" d="M29.2352 13.9797C29.3077 14.0224 29.3788 14.0652 29.4438 14.1079C28.1258 14.9841 24.6282 15.6893 20.1209 16.0007C24.4271 15.5 27.2854 14.5322 27.2975 13.679C27.3005 13.505 27.1871 13.2851 26.9317 13.1401C27.6375 13.3157 28.2497 13.5141 28.7485 13.7354C28.7923 13.7553 28.8362 13.7751 28.8785 13.795C29.0054 13.8545 29.1248 13.9171 29.2352 13.9797Z" fill="url(#paint3_linear_2148_12291)"/>
<path d="M29.4438 14.1079C28.1258 14.984 24.6282 15.6892 20.1209 16.0006C20.9658 15.9029 21.8138 15.7946 22.5393 15.6908C25.1889 15.3092 27.2506 14.9031 28.5006 14.3612C28.7288 14.2544 29.149 13.9323 28.7379 13.7308C28.7817 13.7507 28.8362 13.7751 28.8785 13.7949C29.0054 13.8545 29.1248 13.9171 29.2352 13.9796C29.3077 14.0224 29.3788 14.0651 29.4438 14.1079Z" fill="#F7B719"/>
<path d="M0.763303 13.9797C0.690752 14.0224 0.619712 14.0652 0.554718 14.1079C1.87274 14.9841 5.37032 15.6893 9.87757 16.0007C5.57134 15.5 2.71312 14.5322 2.70103 13.679C2.69801 13.505 2.81137 13.2851 3.06681 13.1401C2.36095 13.3157 1.74879 13.5141 1.25 13.7354C1.20617 13.7553 1.16234 13.7751 1.12001 13.795C0.993049 13.8545 0.873642 13.9171 0.763303 13.9797Z" fill="#D19213"/>
<path style="mix-blend-mode:multiply" d="M0.763303 13.9797C0.690752 14.0224 0.619712 14.0652 0.554718 14.1079C1.87274 14.9841 5.37032 15.6893 9.87757 16.0007C5.57134 15.5 2.71312 14.5322 2.70103 13.679C2.69801 13.505 2.81137 13.2851 3.06681 13.1401C2.36095 13.3157 1.74879 13.5141 1.25 13.7354C1.20617 13.7553 1.16234 13.7751 1.12001 13.795C0.993049 13.8545 0.873642 13.9171 0.763303 13.9797Z" fill="url(#paint4_linear_2148_12291)"/>
<path style="mix-blend-mode:multiply" d="M0.763303 13.9797C0.690752 14.0224 0.619712 14.0652 0.554718 14.1079C1.87274 14.9841 5.37032 15.6893 9.87757 16.0007C5.57134 15.5 2.71312 14.5322 2.70103 13.679C2.69801 13.505 2.81137 13.2851 3.06681 13.1401C2.36095 13.3157 1.74879 13.5141 1.25 13.7354C1.20617 13.7553 1.16234 13.7751 1.12001 13.795C0.993049 13.8545 0.873642 13.9171 0.763303 13.9797Z" fill="url(#paint5_linear_2148_12291)"/>
<path d="M0.554718 14.1079C1.87274 14.984 5.37032 15.6892 9.87757 16.0006C9.03265 15.9029 8.18471 15.7946 7.45919 15.6908C4.80956 15.3092 2.74789 14.9031 1.49789 14.3612C1.26965 14.2544 0.849458 13.9323 1.26058 13.7308C1.21675 13.7507 1.16234 13.7751 1.12001 13.7949C0.993049 13.8545 0.873642 13.9171 0.763303 13.9796C0.690752 14.0224 0.619712 14.0651 0.554718 14.1079Z" fill="#F7B719"/>
<path d="M29.9758 13.5324C29.8866 13.7766 29.6584 13.9613 29.4453 14.1079H29.4438C29.3788 14.0651 29.3077 14.0224 29.2352 13.9797C29.1249 13.9171 29.0054 13.8545 28.8785 13.795C28.8362 13.7751 28.7923 13.7553 28.7485 13.7354C26.182 12.5982 20.5895 12.0579 15 12.0594C9.41052 12.0579 3.81802 12.5982 1.25151 13.7354C1.20768 13.7553 1.16385 13.7751 1.12153 13.795C0.994561 13.8545 0.875154 13.9171 0.764815 13.9797C0.692264 14.0224 0.621224 14.0651 0.55623 14.1079H0.554718C0.341599 13.9613 0.113364 13.7766 0.0241863 13.5324C-0.0166238 13.4164 -0.00453193 13.2867 0.0529046 13.1783C1.01874 11.3634 8.0124 10.4841 15 10.4719C21.9876 10.4841 28.9813 11.3634 29.9471 13.1783C30.0045 13.2867 30.0166 13.4164 29.9758 13.5324Z" fill="url(#paint6_linear_2148_12291)"/>
<g filter="url(#filter0_d_2148_12291)">
<path d="M16.9362 2.94048C16.0671 2.22764 15 1.34842 14.3304 0.792796C14.3138 0.777532 14.2911 0.763794 14.2639 0.763794C14.2367 0.763794 14.2004 0.776005 14.2004 0.823325C14.2004 0.870644 14.2488 0.971388 14.2458 1.2034C14.2427 1.44458 14.1883 1.60791 13.8543 2.02004C13.8543 2.02004 12.8658 3.24882 12.5317 3.65332C11.8546 4.47301 11.2455 5.03016 11.2439 6.06049C11.2409 7.09236 11.7669 7.59608 12.5332 8.21733C13.2996 8.83859 14.2911 9.64454 15.062 10.2765C15.0801 10.2902 15.1013 10.3055 15.1285 10.3055C15.1557 10.3055 15.192 10.2933 15.192 10.246C15.192 10.1986 15.1466 10.1513 15.1421 9.9193C15.1375 9.66897 15.204 9.47816 15.5033 9.1225C15.5033 9.1225 16.5447 7.84946 16.8924 7.42512C17.6632 6.48331 18.1394 6.06202 18.1424 5.04389C18.1454 4.02424 17.6013 3.48389 16.9362 2.93895V2.94048Z" fill="#C4860A"/>
</g>
<path d="M15.1285 11.0702C14.9894 11.0702 14.7869 11.0351 14.5874 10.8703C13.8165 10.2399 12.825 9.43392 12.0602 8.81266C11.1986 8.11356 10.4852 7.42362 10.4882 6.05899C10.4912 4.88364 11.1019 4.1647 11.6929 3.4717C11.7775 3.37248 11.8637 3.27174 11.9513 3.16489C12.2793 2.76802 13.2588 1.55145 13.2678 1.53924C13.4553 1.30875 13.4855 1.23548 13.49 1.22327C13.49 1.21869 13.49 1.20801 13.49 1.1958C13.49 1.12863 13.484 1.09963 13.4749 1.05994C13.4628 1.00957 13.4432 0.924092 13.4447 0.818769C13.4477 0.366947 13.8029 0.00823654 14.2518 0.000604404C14.3924 -0.0055013 14.607 0.0326594 14.8156 0.206672C15.4791 0.757712 16.5447 1.63541 17.4138 2.34825C18.1348 2.93898 18.9027 3.68387 18.8996 5.0485C18.8966 6.21621 18.3918 6.81915 17.7509 7.58389C17.6647 7.68769 17.5725 7.79606 17.4773 7.9136L16.0883 9.61098C15.9235 9.80789 15.9008 9.872 15.8993 9.87658C15.8993 9.87658 15.8993 9.88574 15.8993 9.90711C15.8993 9.95138 15.9039 9.96817 15.9039 9.96817C15.9205 10.0201 15.9507 10.1208 15.9492 10.2536C15.9462 10.7039 15.5925 11.0641 15.1421 11.0702C15.1375 11.0702 15.133 11.0702 15.1285 11.0702ZM14.7294 2.11013C14.6493 2.23682 14.5526 2.36657 14.4392 2.50547C14.3999 2.55432 13.4462 3.74035 13.1121 4.14485C13.0199 4.25781 12.9277 4.36466 12.8386 4.46845C12.2718 5.13398 11.9997 5.47895 11.9982 6.0651C11.9982 6.70467 12.2355 7.0008 13.0048 7.6251C13.5036 8.02961 14.0992 8.51348 14.6675 8.97599C14.743 8.85998 14.8307 8.7455 14.9274 8.63102L16.3089 6.94127C16.4087 6.81915 16.5039 6.70467 16.5946 6.59782C17.2083 5.86666 17.3836 5.62854 17.3851 5.04392C17.3866 4.40282 17.101 4.05937 16.4586 3.53275C15.9099 3.08246 15.2842 2.56805 14.7279 2.1086L14.7294 2.11013ZM13.8513 1.38355C13.8513 1.38355 13.8543 1.3866 13.8558 1.38813C13.8543 1.38813 13.8528 1.38507 13.8513 1.38355Z" fill="url(#paint7_linear_2148_12291)"/>
<path d="M16.9362 2.94048C16.0671 2.22764 15 1.34842 14.3304 0.792796C14.3138 0.777532 14.2911 0.763794 14.2639 0.763794C14.2367 0.763794 14.2004 0.776005 14.2004 0.823325C14.2004 0.870644 14.2488 0.971388 14.2458 1.2034C14.2427 1.44458 14.1883 1.60791 13.8543 2.02004C13.8543 2.02004 12.8658 3.24882 12.5317 3.65332C11.8546 4.47301 11.2455 5.03016 11.2439 6.06049C11.2409 7.09236 11.7669 7.59608 12.5332 8.21733C13.2996 8.83859 14.2911 9.64454 15.062 10.2765C15.0801 10.2902 15.1013 10.3055 15.1285 10.3055C15.1557 10.3055 15.192 10.2933 15.192 10.246C15.192 10.1986 15.1466 10.1513 15.1421 9.9193C15.1375 9.66897 15.204 9.47816 15.5033 9.1225C15.5033 9.1225 16.5447 7.84946 16.8924 7.42512C17.6632 6.48331 18.1394 6.06202 18.1424 5.04389C18.1454 4.02424 17.6013 3.48389 16.9362 2.93895V2.94048Z" fill="url(#paint8_radial_2148_12291)"/>
<path d="M14.8337 7.97463C14.5677 7.97463 14.2956 7.79909 14.2956 7.41443V4.67602H13.1182V4.25626C13.1182 4.02729 13.3358 3.82733 13.5807 3.82733H14.3274C14.8111 3.82733 15.1043 4.28526 15.1043 4.53865C15.1043 4.79203 15.1043 6.59322 15.1043 7.1641C15.1043 7.75177 15.2675 7.88457 15.2675 7.88457C15.2675 7.88457 15.0982 7.97463 14.8322 7.97463H14.8337ZM16.2817 4.47606C16.2817 4.58597 16.2288 4.67755 16.0928 4.67755H15.4776C15.3915 4.67755 15.3114 4.66229 15.2615 4.58139C15.2116 4.49896 15.2101 4.35853 15.1345 4.20131C15.0589 4.04561 14.8987 3.93113 14.8473 3.89297C14.8352 3.88381 14.8201 3.8716 14.8201 3.85633C14.8201 3.84107 14.8322 3.82886 14.8473 3.82886H16.2832V4.47759L16.2817 4.47606Z" fill="white"/>
<defs>
<filter id="filter0_d_2148_12291" x="8.24393" y="0.763794" width="12.8985" height="15.5417" filterUnits="userSpaceOnUse" color-interpolation-filters="sRGB">
<feFlood flood-opacity="0" result="BackgroundImageFix"/>
<feColorMatrix in="SourceAlpha" type="matrix" values="0 0 0 0 0 0 0 0 0 0 0 0 0 0 0 0 0 0 127 0" result="hardAlpha"/>
<feOffset dy="3"/>
<feGaussianBlur stdDeviation="1.5"/>
<feColorMatrix type="matrix" values="0 0 0 0 0 0 0 0 0 0 0 0 0 0 0 0 0 0 0.4 0"/>
<feBlend mode="normal" in2="BackgroundImageFix" result="effect1_dropShadow_2148_12291"/>
<feBlend mode="normal" in="SourceGraphic" in2="effect1_dropShadow_2148_12291" result="shape"/>
</filter>
<linearGradient id="paint0_linear_2148_12291" x1="15.0015" y1="3.49001" x2="15.0015" y2="12.876" gradientUnits="userSpaceOnUse">
<stop stop-color="white" stop-opacity="0"/>
<stop offset="0.32" stop-color="#FEFEFC" stop-opacity="0"/>
<stop offset="0.45" stop-color="#FEFAF5" stop-opacity="0.04"/>
<stop offset="0.55" stop-color="#FCF4E8" stop-opacity="0.09"/>
<stop offset="0.63" stop-color="#FBECD6" stop-opacity="0.17"/>
<stop offset="0.7" stop-color="#F8E1BE" stop-opacity="0.27"/>
<stop offset="0.77" stop-color="#F6D3A1" stop-opacity="0.39"/>
<stop offset="0.82" stop-color="#F2C37F" stop-opacity="0.53"/>
<stop offset="0.88" stop-color="#EEB156" stop-opacity="0.7"/>
<stop offset="0.92" stop-color="#EA9C2A" stop-opacity="0.89"/>
<stop offset="0.95" stop-color="#E8900F"/>
</linearGradient>
<linearGradient id="paint1_linear_2148_12291" x1="10.9704" y1="18.5909" x2="20.2305" y2="2.70798" gradientUnits="userSpaceOnUse">
<stop offset="0.3" stop-color="white" stop-opacity="0"/>
<stop offset="0.39" stop-color="white" stop-opacity="0.04"/>
<stop offset="0.54" stop-color="white" stop-opacity="0.15"/>
<stop offset="0.74" stop-color="white" stop-opacity="0.33"/>
<stop offset="0.97" stop-color="white" stop-opacity="0.57"/>
<stop offset="1" stop-color="white" stop-opacity="0.6"/>
</linearGradient>
<linearGradient id="paint2_linear_2148_12291" x1="21.9831" y1="17.8812" x2="27.6367" y2="12.2829" gradientUnits="userSpaceOnUse">
<stop offset="0.4" stop-color="white" stop-opacity="0"/>
<stop offset="1" stop-color="#FFC871"/>
</linearGradient>
<linearGradient id="paint3_linear_2148_12291" x1="21.9831" y1="17.8812" x2="27.6367" y2="12.2829" gradientUnits="userSpaceOnUse">
<stop offset="0.6" stop-color="white" stop-opacity="0"/>
<stop offset="1" stop-color="#E59A15"/>
</linearGradient>
<linearGradient id="paint4_linear_2148_12291" x1="8.01542" y1="0.000661705" x2="2.32557" y2="12.1847" gradientUnits="userSpaceOnUse">
<stop offset="0.4" stop-color="white" stop-opacity="0"/>
<stop offset="1" stop-color="#FFC871"/>
</linearGradient>
<linearGradient id="paint5_linear_2148_12291" x1="8.01542" y1="0.000661705" x2="2.32557" y2="12.1847" gradientUnits="userSpaceOnUse">
<stop offset="0.6" stop-color="white" stop-opacity="0"/>
<stop offset="1" stop-color="#E59A15"/>
</linearGradient>
<linearGradient id="paint6_linear_2148_12291" x1="2.52519e-06" y1="12.2899" x2="30" y2="12.2899" gradientUnits="userSpaceOnUse">
<stop offset="0.15" stop-color="#F7B719"/>
<stop offset="0.3" stop-color="#FFDC97"/>
<stop offset="0.5" stop-color="#FFC543"/>
<stop offset="0.7" stop-color="#FFDC97"/>
<stop offset="0.85" stop-color="#F7B719"/>
</linearGradient>
<linearGradient id="paint7_linear_2148_12291" x1="11.714" y1="8.54859" x2="17.7233" y2="2.59815" gradientUnits="userSpaceOnUse">
<stop offset="0.03" stop-color="#C4860A"/>
<stop offset="0.25" stop-color="#FFD599"/>
<stop offset="0.5" stop-color="#EDA820"/>
<stop offset="0.75" stop-color="#FFD599"/>
<stop offset="0.97" stop-color="#C4860A"/>
</linearGradient>
<radialGradient id="paint8_radial_2148_12291" cx="0" cy="0" r="1" gradientTransform="matrix(6.875 -6.61417 6.57559 6.94295 11.25 9.00846)" gradientUnits="userSpaceOnUse">
<stop offset="0.12" stop-color="#FFCC00"/>
<stop offset="0.5" stop-color="#FF0015"/>
<stop offset="0.9" stop-color="#C6000F"/>
</radialGradient>
</defs>
</svg>
